<svg id="visual" viewBox="0 0 900 600" width="900" height="600" xmlns="http://www.w3.org/2000/svg" xmlns:xlink="http://www.w3.org/1999/xlink" version="1.1"><rect x="0" y="0" width="900" height="600" fill="#002233"></rect><path d="M0 206L15 200.2C30 194.3 60 182.7 90 189.5C120 196.3 150 221.7 180 234.8C210 248 240 249 270 241.8C300 234.7 330 219.3 360 195C390 170.7 420 137.3 450 137C480 136.7 510 169.3 540 179.3C570 189.3 600 176.7 630 177.2C660 177.7 690 191.3 720 185.8C750 180.3 780 155.7 810 139C840 122.3 870 113.7 885 109.3L900 105" fill="none" stroke-linecap="round" stroke-linejoin="miter" stroke="#2497f3" stroke-width="40"></path></svg>